<svg version="1" xmlns="http://www.w3.org/2000/svg" width="933.333" height="933.333" viewBox="0 0 700.000000 700.000000"><path d="M159 .7c-10.6 1.1-24.9 3.9-35 7-14.3 4.2-38.4 16-50.2 24.5C32.6 62 6.8 106 1 156.5c-1.4 12.4-1.4 374.6 0 387 6 51.8 33.8 98 76.5 126.6 16.2 10.9 39.5 21.1 57.8 25.3 19.9 4.6 18.8 4.6 213.8 4.6 122.7 0 187.2-.4 193.7-1.1 44.1-4.8 85-25.8 113.3-58.3 24.3-27.8 38.8-60.9 42.8-97.8 1.5-13.2 1.5-373.7.1-386.3-3.7-32.1-15.4-61.5-34.5-86.9-25.9-34.4-64-58.1-107.8-66.8L545.5.5 354 .4C248.7.3 160.9.5 159 .7zm206.6 86.4c17 5.2 31 18.9 36.6 35.9 2.1 6.2 2.2 8.6 2.6 50.3l.3 43.8 30.4-30.5c27.7-27.8 30.9-30.7 37.6-34 7.7-3.8 18.5-6.6 25.4-6.6 6.8 0 17.7 2.8 25 6.4 12.1 6 22.9 18.4 27.1 31.2 1.4 4.5 1.9 8.7 1.9 17.9-.1 13.4-1.6 19.2-7.7 28.8-1.7 2.9-16.5 18.6-32.7 34.9L482.6 295h41c25.4 0 43.3.4 47 1.1 21 3.9 39.3 22.3 43.5 43.7 4.3 22.7-7.8 48-28.1 58.2-12.6 6.4-12.5 6.4-59.9 6.8l-43.4.3 30.5 30.7c32.5 32.8 34.9 35.9 38.3 48.7 1.9 7.5 1.9 20.4 0 27.8-4.9 18.9-20.3 34.3-39.2 39.2-7.4 1.9-20.3 1.9-27.8 0-12.8-3.4-15.9-5.8-48.7-38.3l-30.7-30.5-.3 43.4c-.4 41.4-.5 43.7-2.6 49.9-6.4 19-20.2 32.3-38.8 37-13.3 3.4-24.8 2.3-37.4-3.7-14.4-6.9-26.7-22.5-29.9-38.1-.7-3.3-1.1-20-1.1-44.8 0-23-.4-39.4-.9-39.2-.5.1-14.2 12.7-30.4 27.8-16.2 15.1-32 29-35.1 30.9-12.4 7.4-29.7 9.3-44.3 4.6-34-10.8-48.6-51.5-29.2-81.5 2.8-4.3 13.8-16 33.1-35l29-28.5-43.8-.6c-41.6-.5-44.2-.6-50.5-2.7-17.2-5.7-30.9-20.1-36.3-38.1-2-6.8-2.1-20.7-.1-28 5.3-19.9 20.7-34.9 40.8-39.6 4.9-1.2 14.8-1.5 48.2-1.5h41.9l-31-31.3c-27.8-28-31.3-31.9-34.3-38.1-10.4-21.9-6.7-45.9 9.9-62.7 11.5-11.6 22.7-16.2 39-16.2 11.4 0 18.9 1.9 28 7.1 2.5 1.4 18 16 35.2 33l30.7 30.5.3-44.4.3-44.4 2.6-7.2c6.3-17.2 21.7-31.2 38.7-35.2 7.3-1.7 21.5-1.2 28.8 1z"/><path d="M342.5 123.4c-3.9 1.7-7 5.2-9 9.8-1.3 3.2-1.5 12-1.5 65.7v62l12.3-.2c6.7-.1 14.6.2 17.5.6l5.2.8-.2-64.8-.3-64.8-2.3-3.3c-4.6-6.3-14.5-9-21.7-5.8zM195.5 184.5c-5.1 1.8-10.1 7.2-11.5 12.4-1.4 5.4 0 10.8 4.3 15.8 4.8 5.6 85.8 86.3 86.6 86.3.4 0 1.4-1.2 2.3-2.8 2.1-3.5 10.9-12.7 17.3-18l5-4.1-44-43.7c-24.2-24-45.1-44.2-46.5-44.9-4.2-2.2-9.2-2.6-13.5-1zM493 184.1c-2.7.8-14.1 11.7-48.7 46.2-24.9 24.8-45.3 45.4-45.3 45.7 0 .3 2.6 2.6 5.8 5.2 3.2 2.6 7.8 7.2 10.2 10.3 2.5 3.2 5.3 6.7 6.2 7.9 1.7 2.1 2.2 1.6 46.8-42.9 24.7-24.8 45.7-46.5 46.6-48.4 1.1-2.3 1.5-5.1 1.2-8.7-.9-11.2-11.8-18.5-22.8-15.3zM335.1 300.6c-8.2 2.2-15 6.2-21.6 12.9-6.8 6.8-10.7 13.5-13 22-3 11.6-1.4 25.3 4.3 35.9 3.4 6.5 13.3 16.4 19.8 19.8 14.3 7.7 32.5 7.7 46.8 0 6.5-3.4 16.4-13.3 19.8-19.8 7.7-14.3 7.7-32.5 0-46.8-3.4-6.5-13.3-16.4-19.8-19.8-10.5-5.6-24.9-7.3-36.3-4.2zM132.5 333.9c-2.2 1-5 2.9-6.2 4.2-6.7 7.4-5.3 20.2 2.9 26.1l3.3 2.3 64.8.3 64.8.2-.8-5.2c-.4-2.9-.7-10.8-.6-17.6l.2-12.2h-62.2c-58.3 0-62.4.2-66.2 1.9zM435.3 344.2c.1 6.8-.2 14.7-.6 17.5l-.8 5.3h65.6c72.3 0 68.4.3 74.3-6.4 7.4-8.4 4.2-22-6.2-26.7-3.9-1.7-8-1.9-68.3-1.9h-64.2l.2 12.2zM418.7 399.9c-.9 1.6-4.9 6.1-8.8 10-3.9 3.9-8.4 7.9-10 8.8-1.6 1-2.9 2-2.9 2.3 0 1.2 90.1 91.1 93.2 93 2.1 1.3 5.1 2 8.2 2 12.9 0 21.1-12.7 16.1-24.8-1.1-2.5-15.7-17.8-47.1-49-25.1-24.8-45.9-45.2-46.3-45.2-.3 0-1.4 1.3-2.4 2.9zM230.3 444.2c-31.9 32-45.4 46.2-45.9 48.3-1.3 4.7-.9 10.7.9 14.2 3.8 7.3 13.7 11.1 21.8 8.4 2.4-.8 16.4-14.1 48.9-46.6l45.5-45.6-2.9-2.1c-6.2-4.6-13-10.9-17.3-16-2.5-2.9-4.8-5.4-5.2-5.6-.3-.1-21 20.2-45.8 45zM358 435.1c-3 .5-10.1.7-15.7.4l-10.3-.6v64.3c0 60.4.2 64.5 1.9 68.4 4.7 10.4 18.3 13.6 26.7 6.2 6.7-5.9 6.4-2 6.4-74.3 0-61.8-.1-65.5-1.7-65.4-1 .1-4.3.6-7.3 1z"/></svg>