<svg viewBox="0 0 24 24" xmlns="http://www.w3.org/2000/svg" fill-rule="evenodd" clip-rule="evenodd" stroke-linejoin="round" stroke-miterlimit="2"><path d="m19.79 9.08-9.66-5.62c-.52-.3-1.11-.458-1.71-.458A3.437 3.437 0 0 0 5 6.422V17.58A3.437 3.437 0 0 0 8.42 21c.6-.001 1.19-.16 1.71-.46L19.79 15a3.424 3.424 0 0 0 1.707-2.96 3.424 3.424 0 0 0-1.707-2.96zm-1 4.15-9.66 5.58c-.44.249-.98.249-1.42 0A1.42 1.42 0 0 1 7 17.58V6.42c0-.507.271-.977.71-1.23.217-.121.461-.186.71-.19.25.005.492.07.71.19l9.66 5.58a1.42 1.42 0 0 1 0 2.46z" fill-rule="nonzero"/></svg>